<?xml version="1.0" encoding="UTF-8" standalone="no"?>
<svg
   width="876"
   height="764"
   version="1.1"
   id="svg44"
   xmlns:xlink="http://www.w3.org/1999/xlink"
   xmlns="http://www.w3.org/2000/svg"
   xmlns:svg="http://www.w3.org/2000/svg">
  <defs
     id="defs28">
    <linearGradient
       id="linearGradient1509">
      <stop
         style="stop-color:#2c2c86;stop-opacity:1;"
         offset="0"
         id="stop1505" />
      <stop
         style="stop-color:#2c2c86;stop-opacity:0;"
         offset="1"
         id="stop1507" />
    </linearGradient>
    <linearGradient
       x1="50%"
       y1="0%"
       x2="50%"
       y2="100%"
       id="b">
      <stop
         stop-color="#4234F8"
         offset="0%"
         id="stop2" />
      <stop
         stop-color="#4234F8"
         stop-opacity="0"
         offset="100%"
         id="stop4" />
    </linearGradient>
    <radialGradient
       cx="33.3%"
       cy="43.394%"
       fx="33.3%"
       fy="43.394%"
       r="58.676%"
       gradientTransform="scale(.81337 1) rotate(-72.484 .371 .382)"
       id="c">
      <stop
         stop-color="#FF6C50"
         stop-opacity="0"
         offset="0%"
         id="stop7" />
      <stop
         stop-color="#FF6C50"
         stop-opacity=".64"
         offset="51.712%"
         id="stop9" />
      <stop
         stop-color="#FF6C50"
         stop-opacity=".24"
         offset="100%"
         id="stop11" />
    </radialGradient>
    <linearGradient
       x1="50%"
       y1="0%"
       x2="50%"
       y2="100%"
       id="d">
      <stop
         stop-color="#4234F8"
         stop-opacity=".8"
         offset="0%"
         id="stop14" />
      <stop
         stop-color="#4234F8"
         stop-opacity="0"
         offset="100%"
         id="stop16" />
    </linearGradient>
    <filter
       id="a"
       x="0"
       y="0"
       width="1"
       height="1">
      <feTurbulence
         type="fractalNoise"
         numOctaves="2"
         baseFrequency=".3"
         result="turb"
         id="feTurbulence19" />
      <feComposite
         in="turb"
         operator="arithmetic"
         k1=".1"
         k2=".1"
         k3=".1"
         k4=".1"
         result="result1"
         in2="turb"
         id="feComposite21" />
      <feComposite
         operator="in"
         in="result1"
         in2="SourceGraphic"
         result="finalFilter"
         id="feComposite23" />
      <feBlend
         mode="multiply"
         in="finalFilter"
         in2="SourceGraphic"
         id="feBlend25" />
    </filter>
    <linearGradient
       xlink:href="#linearGradient1509"
       id="linearGradient1515"
       x1="602.21783"
       y1="250.18839"
       x2="164.81226"
       y2="640.92249"
       gradientUnits="userSpaceOnUse" />
    <linearGradient
       xlink:href="#linearGradient1509"
       id="linearGradient3169"
       gradientUnits="userSpaceOnUse"
       x1="602.21783"
       y1="250.18839"
       x2="164.81226"
       y2="640.92249"
       gradientTransform="rotate(-89.604487,430.38721,413.85294)" />
  </defs>
  <g
     fill="none"
     fill-rule="evenodd"
     filter="url(#a)"
     id="g42">
    <path
       d="m 479.714,545.87487 c -37.75,237.363 -436.799,-108.302 -173.285,-173.139 263.513,-64.837 77.581,-173.139 173.285,-173.139 95.704,0 173.286,77.517 173.286,173.14 0,95.621 -135.536,-64.225 -173.286,173.138 z"
       fill="url(#d)"
       id="path34"
       style="fill:url(#linearGradient1515);fill-opacity:1" />
    <path
       d="m 562.74651,365.43867 c 237.09676,39.38761 -111.31462,436.041 -174.33105,172.08571 -63.01644,-263.95429 -172.59934,-78.77432 -171.9387,-174.47604 0.66064,-95.70172 78.71134,-172.74678 174.33206,-172.0867 95.61872,0.66007 -65.15907,135.08943 171.93769,174.47703 z"
       fill="url(#d)"
       id="path34-5"
       style="fill:url(#linearGradient3169);fill-opacity:1" />
    <path
       fill="#C1C3DA"
       d="M640.608 179l-3.624 1.667-.984 3.53 1.158 3.36 3.45 1.443 3.249-1.639 2.143-3.165-1.62-3.674z"
       id="path36" />
    <path
       fill-opacity=".64"
       fill="#FF6C50"
       d="M642.304 218l-1.812.833-.492 1.765.579 1.68 1.725.722 1.624-.82 1.072-1.582-.81-1.837z"
       id="path38"
       style="fill:#f5320c;fill-opacity:0.92131978" />
    <path
       fill-opacity=".64"
       fill="#268DF7"
       d="M614.686 200l-2.899 1.334-.787 2.823.926 2.688 2.76 1.155 2.6-1.31 1.714-2.533-1.295-2.94z"
       id="path40"
       style="fill:#33219d;fill-opacity:1" />
  </g>
</svg>
